<svg width="644.3" height="198.86" xmlns="http://www.w3.org/2000/svg" data-name="Capa 1">

 <g>
  <title>Layer 1</title>
  <path id="svg_1" fill="#fff" d="m124.93,144.58a49,49 0 0 1 -19,-3.69a47.51,47.51 0 0 1 -29.59,-44.34a46.32,46.32 0 0 1 3.82,-18.82a47,47 0 0 1 10.6,-15.2a48.49,48.49 0 0 1 15.88,-10.13a52,52 0 0 1 19.48,-3.62a53.06,53.06 0 0 1 21.77,4.34a44.63,44.63 0 0 1 16.26,12l-14.08,14.06a29.28,29.28 0 0 0 -10.53,-8.69a31.36,31.36 0 0 0 -13.69,-2.9a29.33,29.33 0 0 0 -14.6,3.66a25.77,25.77 0 0 0 -10.07,10.1a30.71,30.71 0 0 0 -3.62,15.2a31.5,31.5 0 0 0 3.56,15.26a26.1,26.1 0 0 0 9.73,10.27a27.29,27.29 0 0 0 14.22,3.68a28.9,28.9 0 0 0 13.88,-3.09a21.19,21.19 0 0 0 8.81,-8.95a30.2,30.2 0 0 0 3.09,-14.28l13.69,9.21l-41.45,-0.66l0,-17.49l48.82,0l0,3q0,16.71 -6,28.1a40.51,40.51 0 0 1 -16.57,17.19a50.07,50.07 0 0 1 -24.41,5.79z" class="cls-1"/>
  <path id="svg_2" fill="#fff" d="m211,144.58a32.65,32.65 0 0 1 -15.6,-3.62a26.65,26.65 0 0 1 -10.59,-10a28,28 0 0 1 -3.82,-14.71l0,-37.07l20.13,0l0,36.84a13.22,13.22 0 0 0 1.12,5.66a8.21,8.21 0 0 0 3.36,3.68a10.44,10.44 0 0 0 5.4,1.32a9.24,9.24 0 0 0 7.1,-2.83c1.75,-1.89 2.63,-4.49 2.63,-7.83l0,-36.84l20.13,0l0,37a28.35,28.35 0 0 1 -3.81,14.81a26.89,26.89 0 0 1 -10.53,10a32.22,32.22 0 0 1 -15.52,3.59z" class="cls-1"/>
  <path id="svg_3" fill="#fff" d="m263.63,70.36a10.35,10.35 0 0 1 -7.83,-3.23a11.54,11.54 0 0 1 0,-15.72a10.47,10.47 0 0 1 7.83,-3.16a10.27,10.27 0 0 1 7.76,3.16a11.71,11.71 0 0 1 0,15.72a10.15,10.15 0 0 1 -7.76,3.23zm-10.14,72.77l0,-63.95l20.14,0l0,63.95l-20.14,0z" class="cls-1"/>
  <path id="svg_4" fill="#fff" d="m282.44,96.25l0,-17.07l49.09,0l0,17.07l-49.09,0zm14.48,46.85l0,-90.37l20.13,0l0,90.4l-20.13,-0.03z" class="cls-1"/>
  <path id="svg_5" fill="#fff" d="m365.74,144.45a29,29 0 0 1 -15.73,-4.34a31.06,31.06 0 0 1 -10.92,-11.86a35.64,35.64 0 0 1 -4,-17.11a35.62,35.62 0 0 1 4,-17.1a31,31 0 0 1 10.92,-11.79a29,29 0 0 1 15.73,-4.34a26.51,26.51 0 0 1 11.65,2.5a22.65,22.65 0 0 1 8.48,6.91a18.56,18.56 0 0 1 3.69,10.07l0,27.63a18.92,18.92 0 0 1 -3.62,10.07a22,22 0 0 1 -8.49,6.91a27,27 0 0 1 -11.71,2.45zm4.08,-18.2a13.45,13.45 0 0 0 10.39,-4.28a15.36,15.36 0 0 0 4,-10.86a16.93,16.93 0 0 0 -1.78,-7.89a13.12,13.12 0 0 0 -5,-5.33a15.43,15.43 0 0 0 -14.87,0a14,14 0 0 0 -5.22,5.36a17.33,17.33 0 0 0 -0.06,15.66a13.72,13.72 0 0 0 5.13,5.39a14,14 0 0 0 7.41,1.95zm13.52,16.88l0,-17.24l3,-15.52l-3,-15.53l0,-15.66l19.75,0l0,63.95l-19.75,0z" class="cls-1"/>
  <path id="svg_6" fill="#fff" d="m417.34,143.13l0,-63.95l20.13,0l0,63.95l-20.13,0zm20.13,-35.14l-8.42,-6.58q2.51,-11.18 8.42,-17.37c4,-4.12 9.43,-6.18 16.45,-6.18a21.92,21.92 0 0 1 8.1,1.38a16.29,16.29 0 0 1 6.11,4.28l-12,15.13a8.73,8.73 0 0 0 -3.29,-2.23a11.87,11.87 0 0 0 -4.47,-0.79a10.49,10.49 0 0 0 -8,3.09q-2.92,3.09 -2.92,9.27l0.02,0z" class="cls-1"/>
  <path id="svg_7" fill="#fff" d="m76.34,196.6l0,-32l7.11,0l0,32l-7.11,0z" class="cls-1"/>
  <path id="svg_8" fill="#fff" d="m89.64,196.6l0,-32l5,0l2.12,6.39l0,25.59l-7.12,0.02zm22.06,0l-18.84,-24.14l1.77,-7.84l18.84,24.14l-1.77,7.84zm0,0l-1.9,-6.39l0,-25.59l7.11,0l0,32l-5.21,-0.02z" class="cls-1"/>
  <path id="svg_9" fill="#fff" d="m132.03,197.1a16.42,16.42 0 0 1 -6.77,-1.29a16,16 0 0 1 -5.18,-3.92l4.62,-4.58a11.46,11.46 0 0 0 3.42,2.74a9.35,9.35 0 0 0 4.37,1a6.33,6.33 0 0 0 3.51,-0.82a2.56,2.56 0 0 0 1.24,-2.26a2.88,2.88 0 0 0 -0.81,-2.13a7.08,7.08 0 0 0 -2.15,-1.4c-0.9,-0.4 -1.88,-0.77 -2.95,-1.14s-2.13,-0.77 -3.19,-1.24a13.3,13.3 0 0 1 -2.92,-1.77a8,8 0 0 1 -2.15,-2.67a9,9 0 0 1 4.57,-12.37a14.45,14.45 0 0 1 5.84,-1.11a15.7,15.7 0 0 1 6.14,1.17a12.66,12.66 0 0 1 4.6,3.22l-4.62,4.57a11.14,11.14 0 0 0 -2.92,-2.22a7.47,7.47 0 0 0 -3.33,-0.72a5.39,5.39 0 0 0 -2.95,0.7a2.27,2.27 0 0 0 -1.08,2a2.56,2.56 0 0 0 0.81,2a7.13,7.13 0 0 0 2.15,1.29c0.89,0.36 1.87,0.72 2.95,1.08s2.13,0.79 3.19,1.27a13.54,13.54 0 0 1 2.92,1.83a8.29,8.29 0 0 1 2.15,2.81a9.6,9.6 0 0 1 0.82,4.19a8.69,8.69 0 0 1 -3.26,7.18c-2.18,1.74 -5.18,2.59 -9.02,2.59z" class="cls-1"/>
  <path id="svg_10" fill="#fff" d="m145.49,170.83l0,-6.21l27.13,0l0,6.21l-27.13,0zm10,25.77l0,-31.52l7.11,0l0,31.52l-7.11,0z" class="cls-1"/>
  <path id="svg_11" fill="#fff" d="m176.6,196.6l0,-32l7.11,0l0,32l-7.11,0zm5.44,-13.18l0,-5.25l6.74,0a4.65,4.65 0 0 0 3.29,-1.09a4.26,4.26 0 0 0 0,-5.8a4.44,4.44 0 0 0 -3.26,-1.13l-6.77,0l0,-5.53l7.6,0a12.35,12.35 0 0 1 5.58,1.2a9.37,9.37 0 0 1 3.76,3.33a9.59,9.59 0 0 1 0,9.81a9.14,9.14 0 0 1 -3.81,3.28a13.06,13.06 0 0 1 -5.75,1.18l-7.38,0zm12,13.18l-10,-13.77l6.52,-1.77l11.87,15.54l-8.39,0z" class="cls-1"/>
  <path id="svg_12" fill="#fff" d="m218.27,197.1a14.06,14.06 0 0 1 -7,-1.68a12.14,12.14 0 0 1 -4.71,-4.64a13.42,13.42 0 0 1 -1.69,-6.77l0,-19.39l7.15,0l0,19.8a6.39,6.39 0 0 0 0.82,3.3a5.46,5.46 0 0 0 2.24,2.15a6.66,6.66 0 0 0 3.15,0.75a6.46,6.46 0 0 0 3.17,-0.75a5.5,5.5 0 0 0 2.15,-2.13a6.45,6.45 0 0 0 0.79,-3.28l0,-19.84l7.16,0l0,19.43a13.36,13.36 0 0 1 -1.68,6.75a12,12 0 0 1 -4.66,4.62a13.94,13.94 0 0 1 -6.89,1.68z" class="cls-1"/>
  <path id="svg_13" fill="#fff" d="m237.2,196.6l0,-32l5.07,0l12.59,19.65l-2.58,0l12.55,-19.61l5.11,0l0,32l-7.11,0l0,-20l1.27,0.31l-8.2,12.77l-4.71,0l-8.15,-12.77l1.22,-0.31l0,20l-7.06,-0.04z" class="cls-1"/>
  <path id="svg_14" fill="#fff" d="m276.06,196.6l0,-32l7.11,0l0,32l-7.11,0zm5.43,-25.86l0,-6.12l17.3,0l0,6.12l-17.3,0zm0,12.5l0,-5.94l15.94,0l0,5.95l-15.94,-0.01zm0,13.36l0,-6.16l17.53,0l0,6.16l-17.53,0z" class="cls-1"/>
  <path id="svg_15" fill="#fff" d="m303.91,196.6l0,-32l5,0l2.13,6.39l0,25.59l-7.13,0.02zm22.06,0l-18.85,-24.14l1.77,-7.84l18.84,24.14l-1.76,7.84zm0,0l-1.91,-6.35l0,-25.63l7.11,0l0,32l-5.2,-0.02z" class="cls-1"/>
  <path id="svg_16" fill="#fff" d="m335.16,170.83l0,-6.21l27.18,0l0,6.21l-27.18,0zm10,25.77l0,-31.52l7.11,0l0,31.52l-7.11,0z" class="cls-1"/>
  <path id="svg_17" fill="#fff" d="m379.86,197.14a17.17,17.17 0 0 1 -6.68,-1.27a16.65,16.65 0 0 1 -5.37,-3.53a15.91,15.91 0 0 1 -3.57,-5.28a17.29,17.29 0 0 1 0,-13a16.09,16.09 0 0 1 3.53,-5.24a16.33,16.33 0 0 1 5.32,-3.49a18.51,18.51 0 0 1 13.32,0a16.74,16.74 0 0 1 5.34,3.49a16,16 0 0 1 3.55,5.26a17.37,17.37 0 0 1 0,13a15.92,15.92 0 0 1 -3.53,5.25a16.22,16.22 0 0 1 -5.32,3.51a16.93,16.93 0 0 1 -6.59,1.3zm-0.09,-6.48a9.7,9.7 0 0 0 5,-1.26a8.55,8.55 0 0 0 3.33,-3.56a11.28,11.28 0 0 0 1.18,-5.27a11.79,11.79 0 0 0 -0.68,-4.1a9,9 0 0 0 -1.95,-3.17a8.46,8.46 0 0 0 -3,-2a10.22,10.22 0 0 0 -3.87,-0.71a9.86,9.86 0 0 0 -5,1.25a8.47,8.47 0 0 0 -3.34,3.41a11.12,11.12 0 0 0 -1.18,5.28a12,12 0 0 0 0.68,4.12a9.32,9.32 0 0 0 1.92,3.19a8.41,8.41 0 0 0 3,2.06a10.17,10.17 0 0 0 3.91,0.76z" class="cls-1"/>
  <path id="svg_18" fill="#fff" d="m409.98,197.1a16.35,16.35 0 0 1 -6.77,-1.29a15.91,15.91 0 0 1 -5.19,-3.92l4.62,-4.58a11.58,11.58 0 0 0 3.42,2.74a9.35,9.35 0 0 0 4.37,1a6.33,6.33 0 0 0 3.51,-0.82a2.57,2.57 0 0 0 1.25,-2.26a2.89,2.89 0 0 0 -0.82,-2.13a7,7 0 0 0 -2.15,-1.4c-0.89,-0.4 -1.87,-0.77 -2.95,-1.14s-2.13,-0.77 -3.19,-1.24a13.3,13.3 0 0 1 -2.92,-1.77a8,8 0 0 1 -2.15,-2.67a9,9 0 0 1 4.57,-12.37a14.47,14.47 0 0 1 5.85,-1.11a15.65,15.65 0 0 1 6.13,1.17a12.66,12.66 0 0 1 4.6,3.22l-4.62,4.57a11.14,11.14 0 0 0 -2.92,-2.22a7.47,7.47 0 0 0 -3.33,-0.72a5.33,5.33 0 0 0 -2.94,0.7a2.25,2.25 0 0 0 -1.09,2a2.56,2.56 0 0 0 0.81,2a7.13,7.13 0 0 0 2.15,1.29c0.9,0.36 1.88,0.72 2.95,1.08s2.14,0.79 3.19,1.27a13.54,13.54 0 0 1 2.92,1.83a8.29,8.29 0 0 1 2.15,2.81a9.6,9.6 0 0 1 0.82,4.19a8.69,8.69 0 0 1 -3.26,7.18q-3.27,2.59 -9.01,2.59z" class="cls-1"/>
  <path id="svg_19" fill="#fff" d="m434.75,188.08l0,-6.07l16,0l0,6.07l-16,0z" class="cls-1"/>
  <path id="svg_20" fill="#fff" d="m480.08,197.1a17.43,17.43 0 0 1 -6.63,-1.25a16.13,16.13 0 0 1 -8.9,-8.79a17.24,17.24 0 0 1 0,-13a15.88,15.88 0 0 1 3.53,-5.24a16.42,16.42 0 0 1 5.32,-3.46a18.89,18.89 0 0 1 13.41,0a16.38,16.38 0 0 1 5.19,3.35l-4.76,4.8a9.1,9.1 0 0 0 -3.06,-2.13a10.44,10.44 0 0 0 -4.14,-0.77a10.12,10.12 0 0 0 -3.83,0.7a8.37,8.37 0 0 0 -3,2a9.41,9.41 0 0 0 -1.95,3.17a12.36,12.36 0 0 0 0,8.2a9.51,9.51 0 0 0 1.95,3.17a8.66,8.66 0 0 0 3,2a9.76,9.76 0 0 0 3.83,0.73a10.91,10.91 0 0 0 4.26,-0.77a9.41,9.41 0 0 0 3.12,-2.13l4.8,4.8a17.5,17.5 0 0 1 -5.28,3.35a17.76,17.76 0 0 1 -6.86,1.27z" class="cls-1"/>
  <path id="svg_21" fill="#fff" d="m508.98,197.1a14,14 0 0 1 -6.95,-1.68a12,12 0 0 1 -4.71,-4.64a13.43,13.43 0 0 1 -1.7,-6.77l0,-19.39l7.16,0l0,19.8a6.48,6.48 0 0 0 0.81,3.3a5.46,5.46 0 0 0 2.24,2.15a6.66,6.66 0 0 0 3.15,0.75a6.43,6.43 0 0 0 3.17,-0.75a5.44,5.44 0 0 0 2.15,-2.13a6.45,6.45 0 0 0 0.8,-3.28l0,-19.84l7.15,0l0,19.43a13.36,13.36 0 0 1 -1.68,6.75a12,12 0 0 1 -4.66,4.62a13.89,13.89 0 0 1 -6.93,1.68z" class="cls-1"/>
  <path id="svg_22" fill="#fff" d="m527.91,196.6l0,-32l7.11,0l0,32l-7.11,0zm5.43,-13.18l0,-5.25l6.74,0a4.65,4.65 0 0 0 3.29,-1.09a4.26,4.26 0 0 0 0,-5.8a4.44,4.44 0 0 0 -3.26,-1.13l-6.77,0l0,-5.53l7.6,0a12.35,12.35 0 0 1 5.58,1.2a9.27,9.27 0 0 1 3.75,3.33a9.53,9.53 0 0 1 0,9.81a9,9 0 0 1 -3.8,3.28a13.06,13.06 0 0 1 -5.75,1.18l-7.38,0zm12,13.18l-10,-13.77l6.52,-1.77l11.87,15.54l-8.39,0z" class="cls-1"/>
  <path id="svg_23" fill="#fff" d="m565.64,197.1a16.35,16.35 0 0 1 -6.77,-1.29a15.91,15.91 0 0 1 -5.19,-3.92l4.62,-4.58a11.58,11.58 0 0 0 3.42,2.74a9.35,9.35 0 0 0 4.37,1a6.33,6.33 0 0 0 3.51,-0.82a2.57,2.57 0 0 0 1.25,-2.26a2.89,2.89 0 0 0 -0.82,-2.13a7,7 0 0 0 -2.15,-1.4c-0.89,-0.4 -1.87,-0.77 -2.95,-1.14s-2.13,-0.77 -3.19,-1.24a13.3,13.3 0 0 1 -2.92,-1.77a8,8 0 0 1 -2.15,-2.67a9,9 0 0 1 4.57,-12.37a14.47,14.47 0 0 1 5.85,-1.11a15.65,15.65 0 0 1 6.13,1.17a12.66,12.66 0 0 1 4.6,3.22l-4.62,4.57a11.14,11.14 0 0 0 -2.92,-2.22a7.47,7.47 0 0 0 -3.33,-0.72a5.33,5.33 0 0 0 -2.94,0.7a2.25,2.25 0 0 0 -1.09,2a2.56,2.56 0 0 0 0.81,2a7.13,7.13 0 0 0 2.15,1.29c0.9,0.36 1.88,0.72 3,1.08s2.14,0.79 3.19,1.27a13.54,13.54 0 0 1 2.92,1.83a8.29,8.29 0 0 1 2.15,2.81a9.6,9.6 0 0 1 0.82,4.19a8.69,8.69 0 0 1 -3.26,7.18q-3.36,2.59 -9.06,2.59z" class="cls-1"/>
  <path id="svg_24" fill="#fff" d="m597.97,197.14a17.21,17.21 0 0 1 -6.68,-1.27a16.61,16.61 0 0 1 -5.36,-3.53a15.93,15.93 0 0 1 -3.58,-5.28a17.29,17.29 0 0 1 0,-13a16.09,16.09 0 0 1 3.53,-5.24a16.33,16.33 0 0 1 5.32,-3.49a18.51,18.51 0 0 1 13.32,0a16.63,16.63 0 0 1 5.34,3.49a16,16 0 0 1 3.56,5.26a17.37,17.37 0 0 1 0,13a16.22,16.22 0 0 1 -8.86,8.76a16.93,16.93 0 0 1 -6.59,1.3zm-0.09,-6.48a9.76,9.76 0 0 0 5,-1.26a8.67,8.67 0 0 0 3.33,-3.56a11.4,11.4 0 0 0 1.17,-5.27a11.56,11.56 0 0 0 -0.68,-4.1a9.12,9.12 0 0 0 -1.94,-3.17a8.5,8.5 0 0 0 -3,-2a10.22,10.22 0 0 0 -3.87,-0.71a9.79,9.79 0 0 0 -5,1.25a8.43,8.43 0 0 0 -3.33,3.49a11.12,11.12 0 0 0 -1.18,5.28a12,12 0 0 0 0.68,4.12a9.18,9.18 0 0 0 1.93,3.19a8.37,8.37 0 0 0 3,2.06a10.21,10.21 0 0 0 3.89,0.68z" class="cls-1"/>
  <path id="svg_25" fill="#fff" d="m628.09,197.1a16.39,16.39 0 0 1 -6.77,-1.29a15.91,15.91 0 0 1 -5.19,-3.92l4.62,-4.58a11.71,11.71 0 0 0 3.42,2.74a9.38,9.38 0 0 0 4.37,1a6.33,6.33 0 0 0 3.51,-0.82a2.57,2.57 0 0 0 1.29,-2.28a2.85,2.85 0 0 0 -0.82,-2.13a7,7 0 0 0 -2.15,-1.4c-0.89,-0.4 -1.87,-0.77 -2.94,-1.14s-2.14,-0.77 -3.19,-1.24a13.3,13.3 0 0 1 -2.92,-1.77a8,8 0 0 1 -2.16,-2.67a9,9 0 0 1 4.54,-12.35a14.45,14.45 0 0 1 5.84,-1.11a15.73,15.73 0 0 1 6.14,1.17a12.62,12.62 0 0 1 4.59,3.22l-4.62,4.57a11,11 0 0 0 -2.92,-2.22a7.47,7.47 0 0 0 -3.33,-0.72a5.38,5.38 0 0 0 -2.94,0.7a2.25,2.25 0 0 0 -1.09,2a2.54,2.54 0 0 0 0.82,2a7,7 0 0 0 2.15,1.29q1.34,0.54 2.94,1.08c1.07,0.37 2.14,0.79 3.2,1.27a13.78,13.78 0 0 1 2.92,1.83a8.29,8.29 0 0 1 2.15,2.81a9.75,9.75 0 0 1 0.81,4.19a8.66,8.66 0 0 1 -3.26,7.18q-3.25,2.59 -9.01,2.59z" class="cls-1"/>
  <path id="svg_26" fill-rule="evenodd" fill="#fff" d="m9.66,106.25c-3,-0.05 -5.7,4.71 -5.37,12c0.39,8.57 6.43,17.27 6.43,25.55c0,7.09 -10.81,14.78 -10.71,29.35c0.1,16.6 8.4,25.71 31.15,25.71s28.32,-10.87 28.32,-25c0,-13 -8.38,-17.35 -8.38,-27.07c0,-10.22 5.42,-14.88 6.43,-20.6c1.19,-6.77 -2.56,-9.85 -5.33,-8.78c-2.46,1 -1.34,7.37 -9.92,7.55c-4.12,0.09 -7.16,-3.77 -7.16,-13.33s-9.64,-10.6 -10.22,-1.22c-0.18,2.78 -1.06,8.14 -6.81,8.17c-6.4,0.01 -4.61,-12.22 -8.43,-12.33z" class="cls-2"/>
  <polygon id="svg_27" fill-rule="evenodd" fill="#fff" points="24.62 124.69 35.27 124.69 33.42 35.05 26.46 35.05 24.62 124.69" class="cls-2"/>
  <path id="svg_28" fill-rule="evenodd" fill="#fff" d="m40.58,25.87a61.86,61.86 0 0 1 0.76,-17.27c1.67,-8.41 -0.47,-13.15 -5.12,-2.27l-11.14,26.12c-0.44,1 -1.17,1.46 0.31,3.55a4.71,4.71 0 0 1 1,2.35l7.09,0c0,-1.18 1.37,-4.32 3.87,-6.42c1.54,-1.3 3.39,-4.22 3.23,-6.06z" class="cls-2"/>
  <rect id="svg_29" transform="rotate(-66.84 -10.64 48.48)" fill="#fff" height="3.38" width="1" y="73.32" x="42.3" class="cls-1"/>
  <path id="svg_30" fill-rule="evenodd" fill="#fff" d="m32.97,10.63l-1.08,-0.46c-0.85,-0.76 0,-2.71 1.13,-2.63l1.07,0.46c0.47,0.6 -0.37,2.56 -1.12,2.63z" class="cls-2"/>
  <rect id="svg_31" transform="rotate(-66.83 -15.62 49.37)" fill="#fff" height="3.38" width="1" y="78.43" x="35.51" class="cls-1"/>
  <path id="svg_32" fill-rule="evenodd" fill="#fff" d="m31.16,14.86l-1.08,-0.47c-0.85,-0.76 0,-2.71 1.13,-2.63l1.13,0.49c0.41,0.57 -0.43,2.53 -1.18,2.61z" class="cls-2"/>
  <rect id="svg_33" transform="rotate(-66.82 -20.6 50.27)" fill="#fff" height="3.38" width="1" y="83.55" x="28.73" class="cls-1"/>
  <path id="svg_34" fill-rule="evenodd" fill="#fff" d="m29.34,19.08l-1.07,-0.46c-0.85,-0.76 0,-2.72 1.12,-2.63l1.08,0.46c0.48,0.59 -0.36,2.55 -1.13,2.63z" class="cls-2"/>
  <rect id="svg_35" transform="rotate(-66.85 -25.57 51.19)" fill="#fff" height="3.38" width="1" y="88.69" x="21.95" class="cls-1"/>
  <path id="svg_36" fill-rule="evenodd" fill="#fff" d="m27.55,23.3l-1.08,-0.46c-0.85,-0.76 0,-2.72 1.13,-2.63l1.07,0.46c0.47,0.58 -0.33,2.58 -1.12,2.63z" class="cls-2"/>
  <rect id="svg_37" transform="rotate(-66.83 -30.55 52.07)" fill="#fff" height="3.38" width="1" y="93.8" x="15.17" class="cls-1"/>
  <path id="svg_38" fill-rule="evenodd" fill="#fff" d="m25.74,27.52l-1.08,-0.46c-0.85,-0.76 0,-2.72 1.13,-2.63l1.08,0.46c0.47,0.59 -0.38,2.56 -1.13,2.63z" class="cls-2"/>
  <rect id="svg_39" transform="rotate(-66.83 -35.53 52.97)" fill="#fff" height="3.38" width="1" y="98.92" x="8.38" class="cls-1"/>
  <path id="svg_40" fill-rule="evenodd" fill="#fff" d="m23.94,31.74l-1.08,-0.49c-0.85,-0.76 0,-2.72 1.12,-2.63l1.08,0.46c0.47,0.63 -0.37,2.59 -1.12,2.66z" class="cls-2"/>
 </g>
</svg>